<svg width="16" height="16" viewBox="0 0 16 16" fill="none" xmlns="http://www.w3.org/2000/svg">
<rect width="16" height="16" fill="#262626"/>
<path d="M1.37976 10.5H2.36714V7.95214C2.36714 7.6069 2.33952 7.08905 2.33952 7.08905H2.35333C2.35333 7.08905 2.54667 7.51024 2.70548 7.77262L4.39024 10.5H5.3569V5.5631H4.36952V8.15238C4.36952 8.49762 4.39714 9.00857 4.39714 9.00857H4.38333C4.38333 9.00857 4.1969 8.58738 4.0381 8.3181L2.39476 5.5631H1.37976V10.5ZM6.1133 10.5H7.11449V8.51833H7.92235C8.54378 8.51833 8.84759 8.82214 8.88901 9.36071C8.93044 9.89238 8.94425 10.4448 9.06854 10.5H10.0283V10.4517C9.85568 10.3757 9.8833 9.84405 9.81425 9.14667C9.75211 8.54595 9.51735 8.28357 9.06163 8.15238V8.13167C9.69687 7.95905 9.96616 7.51714 9.96616 6.93714C9.96616 6.11548 9.33092 5.5631 8.37806 5.5631H6.1133V10.5ZM7.11449 6.37095H8.20544C8.73711 6.37095 8.99259 6.66786 8.99259 7.06833C8.99259 7.4619 8.7233 7.745 8.17782 7.745H7.11449V6.37095ZM10.6108 10.5H12.4544C13.0758 10.5 13.5523 10.3274 13.9182 10.0236C14.4361 9.58857 14.7054 8.88429 14.7054 8.08333C14.7054 6.62643 13.8561 5.5631 12.5373 5.5631H10.6108V10.5ZM11.612 9.6369V6.41929H12.413C13.2623 6.41929 13.6904 7.10286 13.6904 8.08333C13.6904 9.06381 13.3244 9.6369 12.3854 9.6369H11.612Z" fill="white"/>
</svg>
