<?xml version="1.0" encoding="utf-8"?>
<!-- Generator: Adobe Illustrator 27.8.0, SVG Export Plug-In . SVG Version: 6.00 Build 0)  -->
<svg version="1.1" id="Layer_1" xmlns="http://www.w3.org/2000/svg" xmlns:xlink="http://www.w3.org/1999/xlink" x="0px" y="0px"
	 viewBox="0 0 280.8 61.5" style="enable-background:new 0 0 280.8 61.5;" xml:space="preserve">
<style type="text/css">
	.st0{fill:#2F2F2F;}
</style>
<path class="st0" d="M257.9,21.7c0-6.7-3.5-11.5-10.4-11.5h-4.5V33h4.5C254,33,257.9,28.8,257.9,21.7L257.9,21.7z M192.7,21.7
	c0-6.1-3.2-11.5-11.5-11.5h-3.3V33h3.3C188.8,33,192.7,28.8,192.7,21.7L192.7,21.7z M123.7,35.3l-6.9-18.2l-6.9,18.2
	c0.4,0,4.1-0.6,6.9-0.6C120,34.9,123.3,35.3,123.7,35.3z M68.3,35.7l-6.9-18.8l-6.7,18c1.1,0,2.4,0,3.7,0
	C63.9,34.9,67.8,35.7,68.3,35.7L68.3,35.7z M280.8,21.7c0,13.2-10.4,21.5-27.5,21.5h-10.2v18.2h-46.4l-18.8-24.7v24.7H133l-5-13.6
	c-0.4,0-5.4-0.9-11.1-0.9c-5.9,0-11.1,0.9-11.3,0.9l-5,13.6H77.6l-3.7-10.4c5.6,1.5,9.8,3.7,12.1,5l0.9-2.4
	c-3.5-2-13.2-6.9-26.9-6.9c-10.8,0-17.6,2.6-28.8,2.6c-18,0-30.5-8.7-31.2-9.3l4.8-11.7C6.1,29.2,18,37,31.9,37
	c2.4,0,4.3-0.2,6.3-0.4L53.3,0h24.9L93,38.4L108.8,0h24.9l21.9,56.8V0.2h29.7c20.2,0,30.3,9.3,30.3,21.5s-9.7,17.1-12.4,18.2
	l17.5,18.9V0.2h32.5C271.3,0.2,280.8,9.3,280.8,21.7L280.8,21.7z M49,50C49,50,49.2,50,49,50l-4.1,11.5H28l4.1-10h0.2
	C33.2,51.6,41,51.4,49,50L49,50L49,50z"/>
</svg>
