<svg width="89" height="51" viewBox="0 0 89 51" fill="none" xmlns="http://www.w3.org/2000/svg">
<path fill-rule="evenodd" clip-rule="evenodd" d="M6.78315 50.6798C5.54579 50.6801 4.33615 50.3132 3.30742 49.6256C2.27868 48.938 1.47711 47.9606 1.0042 46.8172C0.690377 46.0579 0.528374 45.2446 0.527344 44.423V6.25675C0.528095 4.59775 1.1874 3.0069 2.3604 1.83373C3.5334 0.660546 5.12415 0.00100187 6.78315 0H82.6884C83.9255 0.00110325 85.1346 0.368591 86.1631 1.0561C87.1916 1.7436 87.9934 2.72033 88.4674 3.86303C88.7813 4.62226 88.9435 5.43565 88.9447 6.25723V44.4235C88.9437 45.6606 88.5764 46.8698 87.8891 47.8984C87.2018 48.927 86.2252 49.7291 85.0826 50.2034C84.3233 50.5169 83.5099 50.6789 82.6884 50.6802L6.78315 50.6798ZM82.6884 49.6367C84.071 49.6351 85.3966 49.0859 86.3752 48.1093C86.8587 47.6247 87.2426 47.05 87.5052 46.4178C87.7665 45.7849 87.9014 45.1069 87.9022 44.4221V6.25723C87.9022 5.57479 87.7656 4.89189 87.5052 4.26144C87.2426 3.62924 86.8587 3.05461 86.3752 2.57C85.8908 2.0864 85.3163 1.70249 84.6842 1.44001C84.051 1.17836 83.3726 1.04333 82.6875 1.04256H6.78363C6.10166 1.04256 5.41876 1.17961 4.78831 1.44001C4.15602 1.70243 3.58135 2.08634 3.09687 2.57C2.61306 3.05436 2.22912 3.62905 1.96688 4.26144C1.70565 4.89444 1.57079 5.57244 1.5699 6.25723V44.4221C1.5712 45.8048 2.12044 47.1307 3.09734 48.1093C4.07571 49.0862 5.40147 49.6355 6.7841 49.6367H82.6884Z" fill="#2F2F2F"/>
<path fill-rule="evenodd" clip-rule="evenodd" d="M34.2862 17.239C34.0674 16.7273 33.7274 16.2765 33.2955 15.9257C32.8635 15.5748 32.3526 15.3344 31.8069 15.2252C32.7601 14.5768 33.5101 13.6014 33.8466 12.5437C34.1831 11.486 34.1047 10.3466 33.6779 9.49166C33.2512 8.63673 32.4752 8.06724 31.512 7.67451C30.5488 7.28178 29.3985 7.0918 28.2619 7.0918H17.0013V23.7765H28.0535C29.4741 23.7765 30.916 23.4972 32.03 23.026C33.1439 22.5543 33.9303 21.9003 34.3329 20.844C34.7361 19.7873 34.7554 18.3283 34.2862 17.239ZM23.2571 10.4284H25.5511C26.147 10.4284 26.8158 10.6155 27.1523 11.0815C27.4883 11.5479 27.4883 12.228 27.1523 12.6945C26.8162 13.1609 26.147 13.3476 25.5511 13.3476H23.2571V10.4284ZM27.9283 19.7953C27.4637 20.4177 26.5634 20.4394 25.8011 20.4394H23.2571V16.894H25.8011C26.5634 16.894 27.4637 16.9153 27.9283 17.5377C28.3928 18.1601 28.3928 19.1729 27.9283 19.7953ZM37.6307 22.6536C36.1109 21.4144 35.7687 19.3903 35.7687 17.5192V7.0918H41.6077V17.3108C41.6077 18.1152 41.7542 18.9593 42.2547 19.576C42.7556 20.1927 43.526 20.5779 44.3913 20.629C45.2566 20.68 46.2165 20.3969 46.7789 19.7249C47.3413 19.0528 47.2378 18.0306 47.2378 17.1086V7.0918H51.6178V15.6426C51.6178 17.9328 51.7341 20.4796 50.2667 22.068C48.7997 23.6564 46.3592 24.2032 43.9471 24.2623C41.5349 24.3214 39.1506 23.8927 37.6307 22.6536ZM73.2355 14.6496C73.1774 12.8887 72.4529 11.4303 71.4727 10.2681C70.4925 9.10602 69.2548 8.24116 67.8072 7.70051C66.3592 7.15985 64.7093 7.0918 63.0869 7.0918H54.3291V23.7765H62.8785C64.6479 23.7765 66.4461 23.5926 67.9859 22.9872C69.5265 22.3814 70.804 21.4579 71.7463 19.965C72.6878 18.472 73.2946 16.4101 73.2355 14.6496ZM66.846 17.0656C66.5903 18.0434 66.077 18.9082 65.2004 19.5141C64.3227 20.12 63.0831 20.4394 61.8775 20.4394H60.1672V10.4284H61.8775C63.085 10.4284 64.3364 10.7233 65.2136 11.3702C66.0912 12.0172 66.5945 12.961 66.8464 13.9785C67.0988 14.996 67.1016 16.0873 66.846 17.0656ZM19.0864 40.0438V43.3809H5.53174V26.6957H11.788V40.0438H19.0864ZM26.3848 43.3809V26.6957H20.1294V43.3809H26.3848ZM43.4584 27.2335C42.3241 26.8077 40.7164 26.3451 38.9422 26.3252C37.1681 26.3054 35.228 26.7274 33.591 27.5029C31.9539 28.2785 30.6207 29.407 29.6561 30.6859C28.691 31.9647 28.0951 33.3934 28.1055 35.0211C28.1159 36.6482 28.7326 38.4739 29.9992 39.9621C31.2658 41.4498 33.1817 42.6011 35.1624 43.1895C37.143 43.7783 39.188 43.8053 41.2438 43.4513C43.2996 43.0973 45.3658 42.362 47.2378 41.2953V33.1614H38.6884V36.7068H41.3993V39.835C40.7282 40.4427 39.7986 40.7527 38.739 40.6077C37.6794 40.4626 36.4904 39.8614 35.6345 39.0415C34.7781 38.221 34.2554 37.1808 34.0914 35.8835C33.9275 34.5863 34.1226 33.0309 34.7162 31.8485C35.3098 30.6665 36.3018 29.8574 37.4587 29.4278C38.6152 28.9987 39.9366 28.9491 41.0727 29.1816C42.2093 29.4132 43.1621 29.926 43.9012 30.659L45.8148 28.5611C45.2524 28.0502 44.5922 27.6598 43.4584 27.2335ZM60.7929 32.5356V26.6957H67.0482V43.3809H60.7929V35.8727H55.5792V43.3809H49.3238V26.6957H55.5792V32.5356H60.7929ZM84.982 30.0328H79.7687V43.3809H73.5134V30.0328H68.2997V26.6957H84.982V30.0328ZM83.5292 42.542H84.0472V42.439C83.9456 42.439 83.8671 42.4045 83.8218 42.3123L83.4276 41.6479C83.6417 41.5566 83.7877 41.4191 83.7877 41.1781C83.7877 40.7428 83.3596 40.6625 83.0325 40.6625H82.0745V40.7542H82.1648C82.3118 40.7542 82.3335 40.8232 82.3335 40.9489V42.2438C82.3335 42.4272 82.2551 42.4385 82.0854 42.4385V42.5415H83.0212V42.4385H82.9309C82.7962 42.4385 82.7622 42.3695 82.7622 42.2438V41.6474H83.0216L83.5292 42.542ZM82.7622 41.5566V40.7887C83.0557 40.7887 83.3482 40.7887 83.3482 41.1781C83.3482 41.4531 83.2126 41.5566 82.9649 41.5566H82.7622ZM82.9871 43.3899C83.9451 43.3899 84.7457 42.5879 84.7457 41.6025C84.7457 40.6171 83.9456 39.8146 82.9871 39.8146C82.0178 39.8146 81.2177 40.6171 81.2177 41.6025C81.2177 42.5879 82.0183 43.3899 82.9871 43.3899ZM82.9871 43.1951C82.1308 43.1951 81.4209 42.4735 81.4209 41.6025C81.4209 40.7315 82.1199 40.0093 82.9871 40.0093C83.8435 40.0093 84.5543 40.7315 84.5543 41.6025C84.5543 42.4735 83.844 43.1951 82.9871 43.1951Z" fill="#2F2F2F"/>
</svg>
