<svg width="46" height="46" viewBox="0 0 46 46" fill="none" xmlns="http://www.w3.org/2000/svg">
<path d="M15.4009 22.0501L14.1228 23.1451L22.5698 32.998L31.225 23.1553L29.9601 22.044L23.4188 29.4893L23.4197 13.7086L21.7362 13.7075L21.7353 29.4441L15.4009 22.0501Z" fill="black"/>
<path d="M6.64122 22.6726C6.64086 26.9538 8.30845 30.9818 11.3357 34.009C14.3635 37.0369 18.3899 38.7028 22.672 38.7034C31.5133 38.7008 38.7035 31.5106 38.7037 22.6717C38.7027 18.3902 37.0372 14.3636 34.0091 11.3355C30.982 8.30837 26.9537 6.64118 22.6728 6.64109C18.3907 6.64199 14.3653 8.30827 11.3363 11.3373C8.309 14.3643 6.64167 18.3906 6.64086 22.6726L6.64122 22.6726ZM22.6725 8.66043C26.4144 8.65954 29.9345 10.1159 32.5817 12.7631C35.2289 15.4103 36.6842 18.9294 36.6843 22.6722C36.6833 30.3998 30.3993 36.6838 22.6716 36.6849C18.9296 36.6838 15.4112 35.2275 12.7642 32.5805C10.1172 29.9335 8.66021 26.4148 8.65985 22.6731C8.66178 18.9302 10.1168 15.411 12.7632 12.7646C15.4118 10.1167 18.9313 8.66034 22.6725 8.66043Z" fill="black"/>
</svg>
