<svg width="120" height="19" viewBox="0 0 120 19" fill="none" xmlns="http://www.w3.org/2000/svg">
<path d="M7.9651 13.0306C8.1302 13.4453 8.07785 13.9769 7.99732 14.299C7.85638 14.8708 7.4698 15.4547 6.32617 15.4547C5.25503 15.4547 4.60268 14.8346 4.60268 13.9004V12.2373H0V13.5581C0 17.3836 3.00805 18.5393 6.23356 18.5393C9.33423 18.5393 11.8872 17.4843 12.294 14.6212C12.5034 13.1393 12.3503 12.1688 12.2779 11.8104C11.553 8.21849 5.04564 7.14735 4.55839 5.13795C4.49073 4.84163 4.48524 4.53449 4.54228 4.23594C4.66309 3.68426 5.03758 3.08426 6.10872 3.08426C7.11544 3.08426 7.69933 3.7044 7.69933 4.63862V5.70171H11.9799V4.49366C11.9799 0.756744 8.6255 0.172852 6.20134 0.172852C3.14899 0.172852 0.656376 1.18359 0.201342 3.98225C0.0805369 4.74735 0.0604027 5.43191 0.241611 6.29366C0.986577 9.79701 7.07919 10.8118 7.9651 13.0306Z" fill="#2F2F2F"/>
<path d="M18.3624 0.720824L15.1812 17.8712H19.8161L22.1637 2.3074H22.2603L24.5436 17.8712H29.1543L25.9932 0.716797L18.3624 0.720824ZM44.2751 0.720824L42.161 13.8322H42.0603L39.9503 0.720824H32.9556L32.5771 17.8712H36.8697L36.9744 2.45237H37.0711L39.9342 17.8712H44.2872L47.1543 2.45639H47.2469L47.3556 17.8712H51.6442L51.2657 0.716797L44.2751 0.720824Z" fill="#2F2F2F"/>
<path d="M63.7249 12.9983C63.89 13.4131 63.8376 13.9447 63.7571 14.2668C63.6161 14.8386 63.2296 15.4225 62.0859 15.4225C61.0148 15.4225 60.3625 14.8024 60.3625 13.8681V12.2051H55.7598V13.5259C55.7598 17.3514 58.7678 18.5071 61.9933 18.5071C65.094 18.5071 67.647 17.452 68.0537 14.5889C68.2631 13.1071 68.1101 12.1366 68.0376 11.7782C67.3128 8.18626 60.8054 7.11512 60.3182 5.10573C60.2505 4.8094 60.245 4.50226 60.302 4.20371C60.4229 3.65203 60.7973 3.05203 61.8685 3.05203C62.8752 3.05203 63.4591 3.67217 63.4591 4.6064V5.66948H67.7396V4.46143C67.7396 0.724518 64.3853 0.140625 61.9611 0.140625C58.9088 0.140625 56.4161 1.15136 55.9611 3.95002C55.8403 4.71512 55.8202 5.39969 56.0014 6.26143C56.7463 9.76479 62.839 10.7796 63.7249 12.9983Z" fill="#2F2F2F"/>
<path d="M78.1208 15.3013C79.3128 15.3013 79.6792 14.4798 79.7638 14.061C79.8 13.8758 79.804 13.6261 79.804 13.4046V0.720044H84.145V13.014C84.1458 13.3902 84.1324 13.7663 84.1047 14.1415C83.8027 17.3429 81.2738 18.3818 78.1208 18.3818C74.9638 18.3818 72.4349 17.3429 72.1329 14.1415C72.1208 13.9724 72.0886 13.3281 72.0926 13.014V0.716017H76.4336V13.4006C76.4295 13.6261 76.4376 13.8758 76.4738 14.061C76.5544 14.4798 76.9248 15.3013 78.1208 15.3013ZM99.0926 0.720044L99.3262 14.1818H99.2336L95.2873 0.720044H88.9248V17.6892H93.141L92.9074 3.76031H93L97.2322 17.6892H103.341V0.720044H99.0926ZM113.891 15.1241C115.132 15.1241 115.566 14.3388 115.643 13.8757C115.679 13.6865 115.683 13.4449 115.683 13.2315V10.7348H113.924V8.23817H120V12.8368C120 13.159 119.992 13.3925 119.94 13.9643C119.658 17.0892 116.948 18.2046 113.907 18.2046C110.867 18.2046 108.161 17.0892 107.875 13.9643C107.827 13.3925 107.815 13.159 107.815 12.8368V5.62072C107.815 5.31468 107.855 4.77508 107.887 4.4932C108.27 1.2838 110.867 0.25293 113.907 0.25293C116.948 0.25293 119.613 1.27575 119.928 4.48917C119.984 5.03682 119.968 5.61669 119.968 5.61669V6.19253H115.643V5.23011C115.643 5.23011 115.643 4.82743 115.591 4.57776C115.51 4.19924 115.188 3.32944 113.875 3.32944C112.627 3.32944 112.26 4.15494 112.168 4.57776C112.115 4.80327 112.095 5.10931 112.095 5.38716V13.2274C112.095 13.4449 112.103 13.6865 112.136 13.8798C112.216 14.3388 112.651 15.1241 113.891 15.1241Z" fill="#2F2F2F"/>
</svg>
