<?xml version="1.0" encoding="utf-8"?>
<!-- Generator: Adobe Illustrator 27.8.0, SVG Export Plug-In . SVG Version: 6.00 Build 0)  -->
<svg version="1.1" id="Layer_1" xmlns="http://www.w3.org/2000/svg" xmlns:xlink="http://www.w3.org/1999/xlink" x="0px" y="0px"
	 viewBox="0 0 229.7 74.5" style="enable-background:new 0 0 229.7 74.5;" xml:space="preserve">
<style type="text/css">
	.st0{clip-path:url(#SVGID_00000131338095183704880040000014410158572546695560_);}
	.st1{fill:#2F2F2F;}
	.st2{fill:#9B9B9B;}
</style>
<g>
	<defs>
		<rect id="SVGID_1_" x="-8.7" y="-9.6" width="249.8" height="88.5"/>
	</defs>
	<clipPath id="SVGID_00000065764571852931416310000004482061881348062357_">
		<use xlink:href="#SVGID_1_"  style="overflow:visible;"/>
	</clipPath>
	<g style="clip-path:url(#SVGID_00000065764571852931416310000004482061881348062357_);">
		<polygon class="st1" points="122.5,74.5 122.5,56.4 125.5,56.4 125.5,63.8 133.8,63.8 133.8,56.4 136.8,56.4 136.8,74.5 
			133.8,74.5 133.8,66.6 125.5,66.6 125.5,74.5 		"/>
		<polygon class="st1" points="143.6,71.7 143.6,66.6 150.1,66.6 150.1,63.8 143.6,63.8 143.6,59.2 151.1,59.2 151.1,56.4 
			140.6,56.4 140.6,74.5 151.4,74.5 151.4,71.7 		"/>
		<polygon class="st1" points="176.7,71.7 176.7,56.4 173.7,56.4 173.7,74.5 184.2,74.5 184.2,71.7 		"/>
		<polygon class="st1" points="202.9,74.5 202.9,66.6 211.2,66.6 211.2,74.5 214.2,74.5 214.2,56.4 211.2,56.4 211.2,63.8 
			202.9,63.8 202.9,56.4 199.9,56.4 199.9,74.5 		"/>
		<polygon class="st1" points="188.7,74.5 191.7,74.5 191.7,59.2 197,59.2 197,56.4 183.4,56.4 183.4,59.2 188.7,59.2 		"/>
		<path class="st1" d="M158.2,70.5l-1.6,4h-3.2l7.3-18.1h2.8l7.3,18.1h-3.2l-1.6-4H158.2z M165,67.8l-2.9-7.3l-2.8,7.4L165,67.8z"/>
		<path class="st2" d="M168.3,11.2c2.1,1.2,2.9,4,1.6,6.1c-0.4,0.7-1,1.2-1.6,1.6c4.7,0,8.4,3.8,8.4,8.5s-3.8,8.5-8.4,8.5
			c-2.1,1.2-2.9,4-1.6,6.1c0.4,0.7,1,1.2,1.6,1.6c8.9,0.2,16.4-6.8,16.6-15.8s-6.8-16.4-15.8-16.6C168.9,11.2,168.6,11.2,168.3,11.2
			"/>
		<path class="st1" d="M21.1,42.8h-8.5V7.7H0V0h33.7v7.7H21.1V42.8z M74,0h-8.1v42.8H74L74,0z M205,35.8c-4.7,0-8.5-3.8-8.5-8.4
			s3.8-8.5,8.4-8.5c2.6,0,5.1,1.2,6.7,3.3l6.1-4.7c-5.4-7.1-15.6-8.4-22.7-3c-7.1,5.4-8.4,15.6-3,22.7s15.6,8.4,22.7,3
			c1.1-0.9,2.1-1.9,3-3l-6.1-4.7C210.1,34.6,207.7,35.8,205,35.8 M147.8,0v27.4c0,8.9-7.2,16.2-16.2,16.2c-8.9,0-16.2-7.2-16.2-16.2
			s7.2-16.2,16.2-16.2c3,0,5.9,0.8,8.5,2.4V0H147.8z M140.1,27.4c0-4.7-3.8-8.4-8.5-8.4c-4.7,0-8.4,3.8-8.4,8.5
			c0,4.7,3.8,8.4,8.4,8.4c0,0,0,0,0,0C136.3,35.8,140.1,32.1,140.1,27.4C140.1,27.4,140.1,27.4,140.1,27.4 M168.3,43.6
			c-2.1-1.2-2.9-3.9-1.6-6.1c0.4-0.7,1-1.3,1.6-1.6c-4.7,0-8.4-3.8-8.4-8.5s3.8-8.5,8.4-8.5c2.1-1.2,2.9-4,1.6-6.1
			c-0.4-0.7-1-1.2-1.6-1.6C159.4,11,152,18,151.8,27s6.8,16.4,15.8,16.6C167.8,43.6,168.1,43.6,168.3,43.6 M94.9,11.2
			c-8.9,0.2-16,7.6-15.8,16.6c0.2,8.6,7.2,15.6,15.8,15.8c3,0,6-1,8.4-2.9v2.5h7.7V27.4C111.1,18.5,103.8,11.2,94.9,11.2
			C94.9,11.2,94.9,11.2,94.9,11.2 M94.9,35.8c-4.7,0-8.4-3.8-8.4-8.5c0-4.7,3.8-8.4,8.5-8.4c4.7,0,8.4,3.8,8.4,8.4
			C103.3,32,99.6,35.8,94.9,35.8 M222.1,42.8h0.6v-4.1h1.5v-0.6h-3.7v0.6h1.5L222.1,42.8z M227.5,42.2l1.6-2.8v3.4h0.6v-4.7h-0.5
			l-1.9,3.3l-1.9-3.3h-0.5v4.7h0.6v-3.4l1.6,2.8L227.5,42.2z M36.8,30.5c1.7,4.6,6.8,6.9,11.4,5.2c1.6-0.6,3-1.6,4-2.9l5.8,4.5
			c-5.4,7.1-15.6,8.4-22.7,3s-8.4-15.6-3-22.7s15.6-8.4,22.7-3c4,3.1,6.3,7.8,6.3,12.8c0,1-0.1,2.1-0.3,3.1H36.8z M36.8,24.3h16.6
			c-1.7-4.6-6.8-6.9-11.4-5.2C39.5,20,37.6,21.9,36.8,24.3"/>
	</g>
</g>
</svg>
