<svg width="279" height="12" viewBox="0 0 279 12" fill="none" xmlns="http://www.w3.org/2000/svg">
<path d="M1 6.60587C19.4869 1.73561 36.7318 1.80479 56.0417 1.80479C85.1215 1.80479 114.168 2.46274 143.242 2.75314C171.78 3.03818 200.309 2.68262 228.843 2.33825C244.458 2.14979 260.809 0.285498 276.39 1.30095C284.351 1.8198 260.609 3.344 252.671 4.05716C224.581 6.58071 196.227 7.67941 167.98 8.08769C145.039 8.41927 122.096 8.73971 99.1509 8.73971C90.5852 8.73971 82.0284 8.75735 73.4673 9.00642C69.8494 9.11167 65.1954 8.72564 61.644 9.5695C61.5817 9.5843 72.2219 10.7018 74.1948 10.755C89.6142 11.1702 105.118 10.9565 120.542 10.8439C136.727 10.7256 152.966 10.6179 169.144 10.2215C175.069 10.0764 192.658 10.5294 186.897 9.39168C181.043 8.23546 173.364 9.34349 167.435 9.53986C156.211 9.91156 144.47 10.4924 133.275 9.51023C111.138 7.56817 177.804 9.08223 200.067 9.27313" stroke="black" stroke-linecap="round"/>
</svg>
