<?xml version="1.0" encoding="utf-8"?>
<!-- Generator: Adobe Illustrator 27.8.0, SVG Export Plug-In . SVG Version: 6.00 Build 0)  -->
<svg version="1.1" id="Layer_1" xmlns="http://www.w3.org/2000/svg" xmlns:xlink="http://www.w3.org/1999/xlink" x="0px" y="0px"
	 viewBox="0 0 595.3 234.3" style="enable-background:new 0 0 595.3 234.3;" xml:space="preserve">
<style type="text/css">
	.st0{fill:#2F2F2F;}
</style>
<path class="st0" d="M450.4,201.3c5.5,6.7,7.5,16.3,5.6,25.5c-0.5,2.3-2,4.3-4.1,5.5c-1.3,0.7-2.7,1.1-4.2,1.1c-1,0-2-0.2-3-0.5
	c-11.4-4.2-30.8-2.6-53.2-0.8c-13.8,1.1-28.2,2.3-42.6,2.3c-10.5,0-18.2-2.5-23.1-7.5c-4-4-5.9-9.5-5.8-16.2
	c0.4-26.3,41.9-110.9,84.1-171.9c-7.1,1.7-29.9,6.8-51,6.8c-11.9,0-21.2-3.5-27.7-10.5c-6.2-6.6-9.4-16-8.9-25.8
	c0.1-1.9,1.1-3.7,2.6-4.8c1.2-0.9,2.6-1.3,4.1-1.3c0.6,0,1.2,0.1,1.7,0.2c14.8,3.7,39.8,1.7,66.2-0.6c16-1.3,32.5-2.7,46.8-2.7
	c6.1,0,11.1,2.6,13.7,7.2c2.4,4.3,2.2,9.7-0.6,14.2c-21.3,35.1-79,134.7-92.4,178.2c7-1.1,13.9-2.3,20.6-3.5
	c16.5-2.9,32.1-5.7,44.8-5.7C438.5,190.5,446.3,196.4,450.4,201.3L450.4,201.3z M305.4,218.7c0.7,1.2,1.1,2.6,1.1,4
	c0,2.9-1.5,5.6-4.1,7.1c-4.8,2.9-10.3,4.5-15.9,4.5c-0.1,0-0.1,0-0.2,0c-12.4,0-20.9-7-23.6-19.3c-10,12.6-23.3,19.3-38.5,19.3
	c-20.2,0-37.4-10.4-49.7-30c-11.6-18.5-17.9-44.5-17.9-73.2c0-76.8,38-130.5,92.5-130.5c21.4,0,37.6,6.9,45.7,19.5
	c5.7,8.9,6.7,19.9,2.6,28.9c-0.9,1.9-2.7,3.1-4.7,3.2c-0.2,0-0.3,0-0.5,0c-1.9,0-3.7-1-4.8-2.6c-4.6-7.1-13.6-15.7-30.6-15.7
	c-16.8,0-31.1,8-41.4,23.1c-11.5,16.9-17.6,42.5-17.6,74.1c0,43.4,12.3,71.5,31.4,71.5c28.9,0,32.6-54.6,32.6-102.2
	c0-14.6-2.4-21.9-4.4-25.5c-0.7-1.2-1-2.6-1-4c0-2.9,1.5-5.6,4-7.1c4.8-2.9,10.3-4.5,15.9-4.5c0.1,0,0.1,0,0.2,0
	c15.3,0,24.5,10.6,24.5,28.5v105.4C301,207.8,303.4,215.1,305.4,218.7L305.4,218.7z"/>
<path class="st0" d="M144,137.6c-3.9-6.2-13.3-4-14.2,3.2c-3.4,28.9-17,61.6-45.3,61.6c-24.6,0-38.1-25.8-42.6-56.1
	C163.3,140.6,169.8,0.6,85.6,0.6C30.5,0.6,0,58.8,0,116.2C0,179.8,29.4,234,84.1,234C144,234,162.9,167.8,144,137.6L144,137.6z
	 M85,32.3c28.8,0,25.3,73-44.8,88.5C40.5,78.9,57.8,32.3,85,32.3z"/>
<path class="st0" d="M588.3,137.6c-3.9-6.2-13.3-4-14.1,3.2c-3.4,28.8-17,61.6-45.3,61.6c-24.6,0-38.1-25.8-42.6-56.1
	C607.5,140.6,614,0.7,529.8,0.7c-55.1,0-85.6,58.1-85.6,115.6c0,63.6,29.4,117.8,84.1,117.8C588.2,234,607.1,167.8,588.3,137.6
	L588.3,137.6z M529.2,32.3c28.8,0,25.3,73-44.8,88.5C484.7,78.9,502,32.3,529.2,32.3z"/>
</svg>
