<?xml version="1.0" encoding="utf-8"?>
<!-- Generator: Adobe Illustrator 27.5.0, SVG Export Plug-In . SVG Version: 6.00 Build 0)  -->
<svg version="1.1" id="Layer_1" xmlns="http://www.w3.org/2000/svg" xmlns:xlink="http://www.w3.org/1999/xlink" x="0px" y="0px"
	 viewBox="0 0 520.1 192.3" style="enable-background:new 0 0 520.1 192.3;" xml:space="preserve">
<style type="text/css">
	.st0{fill-rule:evenodd;clip-rule:evenodd;fill:#2F2F2F;}
	.st1{fill-rule:evenodd;clip-rule:evenodd;fill:#FEFEFE;}
	.st2{fill-rule:evenodd;clip-rule:evenodd;fill:#FFFFFF;}
</style>
<g id="GreenText_Clear-Bg_Vector_H">
	<g id="Page-1" transform="translate(16.000000, 16.000000)">
		<path id="Fill-1" class="st0" d="M80,171.8c-50.6,0-91.6-41.1-91.6-91.7c0-50.6,41-91.7,91.6-91.7c50.6,0,91.6,41.1,91.6,91.7
			C171.6,130.7,130.6,171.8,80,171.8"/>
		<path id="Fill-3" class="st1" d="M160.9,80.1c0-44.7-36.2-80.9-80.9-80.9C35.4-0.8-0.8,35.4-0.8,80.1c0,44.7,36.2,80.9,80.8,80.9
			C124.7,161,160.9,124.7,160.9,80.1"/>
		<path id="Fill-5" class="st0" d="M84.6,20.4v40.4c0,5,5.5,8.2,9.8,5.7l35-20.2c4.9-2.8,5.8-9.4,2-13.6
			C121.8,22.4,109.2,15,95,11.8C89.7,10.7,84.6,14.9,84.6,20.4"/>
		<path id="Fill-7" class="st0" d="M95,148.3c14.2-3.1,26.8-10.5,36.3-20.9c3.8-4.2,2.9-10.8-2-13.6l-35-20.2
			c-4.4-2.5-9.8,0.6-9.8,5.7v40.4C84.6,145.2,89.7,149.5,95,148.3"/>
		<path id="Fill-9" class="st0" d="M26.1,54.2c-4.9-2.8-11-0.3-12.7,5.1c-2,6.6-3.2,13.6-3.2,20.8c0,7.3,1.1,14.2,3.2,20.8
			c1.7,5.4,7.9,7.9,12.7,5.1l35-20.2c4.4-2.5,4.4-8.8,0-11.3L26.1,54.2z"/>
		<path id="Fill-11" class="st0" d="M146.7,59.2c-1.7-5.4-7.9-7.9-12.7-5.1l-35,20.2c-4.4,2.5-4.4,8.8,0,11.3l35,20.2
			c4.9,2.8,11.1,0.3,12.7-5.1c2.1-6.6,3.2-13.6,3.2-20.8C149.8,72.8,148.7,65.8,146.7,59.2"/>
		<path id="Fill-13" class="st0" d="M30.7,46.3l35,20.2c4.4,2.5,9.8-0.6,9.8-5.7V20.4c0-5.5-5.1-9.7-10.5-8.6
			C50.8,15,38.2,22.4,28.7,32.7C24.9,36.9,25.8,43.5,30.7,46.3"/>
		<path id="Fill-15" class="st0" d="M65.6,93.6l-35,20.2c-4.9,2.8-5.8,9.4-2,13.6c9.5,10.3,22.1,17.7,36.3,20.9
			c5.4,1.2,10.5-3,10.5-8.6V99.3C75.4,94.3,70,91.1,65.6,93.6"/>
		<path id="Fill-17" class="st0" d="M88.4,80.1c0,4.6-3.8,8.4-8.4,8.4c-4.6,0-8.4-3.8-8.4-8.4c0-4.6,3.8-8.4,8.4-8.4
			C84.6,71.7,88.4,75.4,88.4,80.1"/>
		<path id="Fill-19" class="st2" d="M274.6,22.7c5.2,0,9.5,4.2,9.5,9.5s-4.2,9.5-9.5,9.5c-5.2,0-9.5-4.2-9.5-9.5
			S269.3,22.7,274.6,22.7"/>
		<path id="Fill-21" class="st0" d="M274.6,22.7c5.2,0,9.5,4.2,9.5,9.5c0,5.2-4.2,9.5-9.5,9.5c-5.2,0-9.5-4.2-9.5-9.5
			C265.1,27,269.4,22.7,274.6,22.7"/>
		<polygon id="Fill-23" class="st0" points="267,129.1 267,53.1 282.1,53.1 282.1,131.8 267,131.8 		"/>
		<path id="Fill-25" class="st0" d="M408.7,131.8h-12.3V88.2c0-4.1-0.3-7.6-1-10.5c-0.6-2.8-1.5-5-2.6-6.8c-1.1-1.6-2.4-2.8-4-3.6
			c-1.6-0.8-3.5-1.2-5.8-1.2c-1.2,0-2.4,0.1-3.6,0.3c-1.1,0.2-2.2,0.6-3.3,1c-1.1,0.5-2.2,1-3.2,1.6c-1,0.6-2,1.4-2.9,2.2
			c-1,0.9-1.9,1.8-2.7,2.8c-0.8,1-1.6,2.1-2.4,3.3c-0.7,1.1-1.3,2.4-1.9,3.7c-0.5,1.2-1,2.4-1.3,3.7v47.1h-15.1V88.2
			c0-4.2-0.3-7.8-0.9-10.7c-0.6-2.8-1.4-5-2.5-6.7c-1-1.6-2.3-2.7-3.9-3.5c-1.6-0.8-3.6-1.2-5.9-1.2c-4.8,0-9.1,1.7-12.9,5.1
			c-2,1.7-3.6,3.8-5,6c-1.4,2.2-2.5,4.7-3.3,7.5v47.2h-15.1V53.1h14.2v10.4l0.4-0.4c2.1-2.4,4.5-4.4,7.2-6.1c2.6-1.7,5.5-3,8.4-3.9
			c3-0.9,6-1.3,9.2-1.3c3.4,0,6.5,0.5,9.2,1.5c2.8,1,5.3,2.5,7.4,4.5c2.1,2,3.8,4.2,5.1,6.8c0.3,0.6,0.6,1.3,0.9,2
			c2.9-4,6.1-7.2,9.6-9.6c5.2-3.4,11-5.2,17.6-5.2c2.2,0,4.3,0.2,6.3,0.6c2,0.4,3.8,1.1,5.5,1.9c1.7,0.9,3.1,1.9,4.5,3.1
			c1.3,1.2,2.5,2.6,3.5,4.2c1,1.6,1.8,3.2,2.5,5.1c0.7,1.8,1.2,3.7,1.7,5.8c0.4,2,0.7,4.2,0.9,6.5c0.2,2.3,0.3,4.7,0.3,7.1v45.6
			H408.7z"/>
		<path id="Fill-27" class="st0" d="M483.4,85.8h-47.6c0.1-0.7,0.3-1.4,0.4-2.1c0.4-1.6,0.9-3.2,1.6-4.7c1.3-3,3-5.5,5.2-7.6
			c2.1-2.1,4.6-3.7,7.5-4.9c2.8-1.2,5.9-1.8,9.1-1.8c1.6,0,3.2,0.1,4.6,0.4c1.5,0.3,3,0.7,4.3,1.3c1.4,0.6,2.7,1.3,4,2.1
			c1.2,0.8,2.4,1.8,3.5,2.8c1.1,1.1,2.1,2.2,2.9,3.5c0.9,1.3,1.7,2.7,2.4,4.1c0.7,1.4,1.2,3,1.6,4.6
			C483.1,84.4,483.3,85.1,483.4,85.8 M459.5,133.2c6.3,0,12.6-1.8,18.2-4.8c3.5-1.9,6.7-4.4,9.5-7.2c2.1-2.1,3.9-4.5,5.4-7
			c1.1-1.9,2.1-3.8,2.8-5.9h-15.8c-0.7,1.2-1.5,2.3-2.4,3.3c-2.2,2.6-5.1,4.7-8,6.3c-3.1,1.6-6.3,2.5-9.2,2.5
			c-3.2,0-6.2-0.6-8.9-1.8c-1.4-0.6-2.8-1.3-4-2.2c-1.2-0.9-2.4-1.8-3.5-2.9c-1.1-1.1-2.1-2.3-3-3.6c-0.9-1.3-1.7-2.7-2.4-4.2
			c-0.7-1.5-1.3-3.1-1.7-4.7c-0.2-0.7-0.3-1.5-0.5-2.2h60h2c0.8-4.2,0.6-9.8-0.3-14.4c-0.5-2.6-1.2-5.1-2.1-7.5
			c-0.9-2.4-2.1-4.7-3.4-6.8c-1.3-2.1-2.9-4.1-4.6-6c-1.7-1.9-3.6-3.6-5.7-5c-2.1-1.5-4.3-2.8-6.7-3.8c-2.4-1.1-4.9-1.9-7.6-2.4
			c-2.7-0.5-5.4-0.8-8.2-0.8c-2.8,0-5.5,0.3-8.1,0.8c-2.6,0.5-5.2,1.4-7.6,2.4c-2.4,1.1-4.7,2.4-6.7,3.8c-2.1,1.5-4,3.1-5.7,5
			c-1.7,1.8-3.3,3.8-4.6,6c-1.3,2.1-2.5,4.4-3.5,6.8c-1,2.4-1.7,5-2.2,7.6c-0.5,2.6-0.7,5.3-0.7,8c0,2.8,0.2,5.5,0.7,8.1
			c0.5,2.6,1.2,5.2,2.2,7.6c1,2.5,2.2,4.8,3.5,6.9c1.4,2.2,2.9,4.2,4.7,6.1c1.8,1.9,3.7,3.6,5.8,5.1c2.1,1.5,4.3,2.8,6.7,3.9
			c2.4,1.1,4.9,1.9,7.6,2.5C454,133,456.7,133.2,459.5,133.2"/>
		<path id="Fill-29" class="st0" d="M231.8,117.6h23.4v14.2h-23.4c-12.2,0-21.5-8.6-21.5-20.9V26.5h15.4v46.9V111
			C225.7,114.4,228.4,117.6,231.8,117.6"/>
	</g>
</g>
</svg>
