<svg width="56" height="56" viewBox="0 0 56 56" fill="none" xmlns="http://www.w3.org/2000/svg">
<path d="M47.2402 8.4139C42.0552 3.22807 35.1567 0.369141 27.8236 0.369141C20.4888 0.369141 13.5943 3.22807 8.40694 8.4139C-2.29841 19.1257 -2.29841 36.5433 8.40694 47.2493C13.5941 52.4338 20.4882 55.2936 27.8236 55.2936C35.1566 55.2936 42.055 52.4338 47.2402 47.2489C52.4256 42.0613 55.2829 35.1676 55.2829 27.8301C55.2833 20.4971 52.426 13.6008 47.2406 8.41346L47.2402 8.4139ZM44.7946 44.8028C40.2635 49.336 34.236 51.8357 27.8234 51.8357C21.4109 51.8357 15.3858 49.3359 10.8523 44.8028C1.49381 35.4418 1.49381 20.2195 10.8523 10.8583C15.386 6.32719 21.4113 3.82963 27.8234 3.82963C34.2356 3.82963 40.2622 6.32675 44.7946 10.8583C49.3257 15.3941 51.8259 21.4189 51.8259 27.8294C51.825 34.2446 49.3261 40.2715 44.7946 44.8028Z" fill="#2F2F2F"/>
<line x1="9" y1="27" x2="46" y2="27" stroke="#2F2F2F" stroke-width="2"/>
</svg>
