<svg width="55" height="55" viewBox="0 0 55 55" fill="none" xmlns="http://www.w3.org/2000/svg">
<path d="M46.8622 8.04476C41.6773 2.85893 34.7788 0 27.4456 0C20.1109 0 13.2164 2.85893 8.02901 8.04476C-2.67634 18.7565 -2.67634 36.1742 8.02901 46.8802C13.2161 52.0647 20.1103 54.9245 27.4456 54.9245C34.7787 54.9245 41.6771 52.0647 46.8622 46.8797C52.0476 41.6922 54.9049 34.7984 54.9049 27.4609C54.9054 20.1279 52.0481 13.2317 46.8627 8.04432L46.8622 8.04476ZM44.4167 44.4336C39.8856 48.9669 33.8581 51.4665 27.4455 51.4665C21.0329 51.4665 15.0079 48.9668 10.4744 44.4336C1.11588 35.0726 1.11588 19.8503 10.4744 10.4891C15.0081 5.95805 21.0334 3.46049 27.4455 3.46049C33.8577 3.46049 39.8843 5.95761 44.4167 10.4891C48.9478 15.0249 51.4479 21.0498 51.4479 27.4603C51.4471 33.8755 48.9482 39.9023 44.4167 44.4336Z" fill="#2F2F2F"/>
<line x1="9" y1="27" x2="46" y2="27" stroke="#2F2F2F" stroke-width="2"/>
<line x1="27" y1="46.5" x2="27" y2="9.5" stroke="#2F2F2F" stroke-width="2"/>
</svg>
