<?xml version="1.0" encoding="utf-8"?>
<!-- Generator: Adobe Illustrator 27.5.0, SVG Export Plug-In . SVG Version: 6.00 Build 0)  -->
<svg version="1.1" id="Layer_1" xmlns="http://www.w3.org/2000/svg" xmlns:xlink="http://www.w3.org/1999/xlink" x="0px" y="0px"
	 viewBox="0 0 195.7 24" style="enable-background:new 0 0 195.7 24;" xml:space="preserve">
<style type="text/css">
	.st0{fill:#2F2F2F;}
</style>
<path class="st0" d="M16.5,19.1l-1.8,1.2L27.2,24V0L13.6,3L0,0v24L16.5,19.1z M2,21.4V2.4L9.1,4L5.6,4.8v12.9l4.5,1.3L2,21.4z
	 M13.6,17.9l-6-1.8V6.3l9.9-2.2l-2.3,1.2l4.5,1v9.8C19.6,16.2,13.6,17.9,13.6,17.9z M25.2,21.4L17,18.9l4.5-1.3V4.8L18.1,4l7.1-1.6
	V21.4z"/>
<path class="st0" d="M32.7,17.8c1.2,0.7,2.5,1.1,3.9,1.1c2.2,0,3.5-1.2,3.5-2.9c0-1.6-0.9-2.4-3.1-3.3c-2.7-1-4.4-2.4-4.4-4.7
	c0-2.6,2.2-4.5,5.4-4.5c1.3,0,2.5,0.2,3.7,0.8L41,6.1c-1-0.5-2.1-0.8-3.2-0.8c-2.3,0-3.1,1.4-3.1,2.5c0,1.6,1,2.3,3.3,3.2
	c2.8,1.1,4.3,2.4,4.3,4.9c0,2.6-1.9,4.8-5.8,4.8c-1.5,0-3-0.4-4.3-1.1L32.7,17.8L32.7,17.8z"/>
<path class="st0" d="M46.2,14.9c0,2.9,1.9,4.2,4.1,4.2c1.2,0,2.3-0.2,3.3-0.6L54,20c-1.3,0.5-2.6,0.8-4,0.7c-3.7,0-5.9-2.4-5.9-6
	s2.1-6.5,5.6-6.5c3.9,0,5,3.4,5,5.6c0,0.3,0,0.7-0.1,1L46.2,14.9L46.2,14.9z M52.6,13.3c0-1.4-0.6-3.5-3-3.5c-2.2,0-3.2,2-3.3,3.5
	H52.6L52.6,13.3z"/>
<path class="st0" d="M57.5,12.2c0-1.4,0-2.6-0.1-3.7h1.9l0.1,2.4h0.1c0.2-0.7,0.6-1.4,1.2-1.9c0.6-0.5,1.3-0.7,2.1-0.8
	c0.2,0,0.4,0,0.6,0.1v2.1c-0.2-0.1-0.5-0.1-0.8-0.1c-1.5,0-2.6,1.2-2.9,2.8c-0.1,0.3-0.1,0.7-0.1,1v6.4h-2.2
	C57.5,20.5,57.5,12.2,57.5,12.2z"/>
<path class="st0" d="M67.4,8.5l2.3,6.7c0.4,1,0.7,2,1,3.1h0.1c0.3-1,0.6-2,1-3.1l2.3-6.7h2.3l-4.7,12h-2.1L65,8.5H67.4L67.4,8.5z"/>
<path class="st0" d="M81.4,5.1c0,0.4-0.1,0.7-0.4,0.9c-0.2,0.2-0.6,0.4-0.9,0.4s-0.7-0.1-0.9-0.4c-0.2-0.2-0.4-0.6-0.4-0.9
	c0-0.2,0-0.4,0.1-0.5c0.1-0.2,0.2-0.3,0.3-0.4c0.1-0.1,0.3-0.2,0.4-0.3c0.2-0.1,0.3-0.1,0.5-0.1c0.2,0,0.4,0,0.5,0.1
	C80.7,3.9,80.9,4,81,4.1c0.1,0.1,0.2,0.3,0.3,0.4C81.3,4.8,81.4,4.9,81.4,5.1L81.4,5.1z M78.9,20.5v-12h2.2v12
	C81.1,20.5,78.9,20.5,78.9,20.5z"/>
<path class="st0" d="M93.5,20c-1.1,0.5-2.3,0.7-3.4,0.7c-3.6,0-6-2.5-6-6.1s2.5-6.4,6.4-6.4c1,0,2.1,0.2,3,0.6L93,10.5
	c-0.8-0.4-1.7-0.6-2.5-0.6c-2.8,0-4.2,2-4.2,4.5c0,2.8,1.8,4.5,4.2,4.5c0.9,0,1.8-0.2,2.7-0.6L93.5,20L93.5,20z"/>
<path class="st0" d="M97.5,14.9c0.1,2.9,1.9,4.2,4.1,4.2c1.2,0,2.3-0.2,3.3-0.6l0.4,1.6c-1.3,0.5-2.6,0.8-4,0.7
	c-3.7,0-5.9-2.4-5.9-6s2.1-6.5,5.6-6.5c3.9,0,4.9,3.4,4.9,5.6c0,0.3,0,0.7-0.1,1L97.5,14.9L97.5,14.9z M103.9,13.3
	c0-1.4-0.6-3.5-3-3.5c-2.2,0-3.2,2-3.3,3.5H103.9L103.9,13.3z"/>
<path class="st0" d="M121.4,19.9c-1.4,0.6-2.9,0.8-4.4,0.8c-4.7,0-8.2-3-8.2-8.4s3.5-8.8,8.7-8.8c1.4-0.1,2.7,0.2,4,0.8L120.9,6
	c-1.1-0.5-2.2-0.7-3.3-0.7c-3.9,0-6.5,2.5-6.5,6.9c0,4.1,2.3,6.7,6.4,6.7c1.2,0,2.4-0.2,3.5-0.7L121.4,19.9L121.4,19.9z"/>
<path class="st0" d="M124.4,2.9h2.2v7.5h0.1c0.4-0.6,0.9-1.2,1.6-1.5c0.7-0.4,1.4-0.6,2.2-0.6c1.6,0,4.2,1,4.2,5.1v7.1h-2.2v-6.9
	c0-1.9-0.7-3.6-2.8-3.6c-0.6,0-1.3,0.2-1.8,0.6c-0.5,0.4-0.9,0.9-1.1,1.6c-0.1,0.3-0.2,0.7-0.1,1v7.3h-2.2L124.4,2.9L124.4,2.9z"/>
<path class="st0" d="M144.8,20.5l-0.2-1.5h-0.1c-0.4,0.6-1,1-1.6,1.3s-1.3,0.5-2.1,0.5c-2.4,0-3.7-1.7-3.7-3.4
	c0-2.9,2.6-4.5,7.2-4.5v-0.2c0-1-0.3-2.8-2.7-2.8c-1.1,0-2.2,0.3-3.1,0.9l-0.5-1.4c1.2-0.7,2.6-1.1,3.9-1.1c3.7,0,4.6,2.5,4.6,4.9
	v4.5c0,1,0.1,1.9,0.2,2.9L144.8,20.5z M144.5,14.3c-2.4-0.1-5.1,0.4-5.1,2.7c0,0.3,0,0.5,0.1,0.8c0.1,0.3,0.2,0.5,0.4,0.7
	s0.4,0.4,0.7,0.5s0.5,0.1,0.8,0.1c0.6,0,1.3-0.2,1.8-0.5s0.9-0.9,1.1-1.5c0.1-0.2,0.1-0.5,0.1-0.7L144.5,14.3L144.5,14.3z"/>
<path class="st0" d="M149.8,11.7c0-1.2,0-2.2-0.1-3.2h1.9l0.1,2h0.1c0.4-0.7,1-1.3,1.7-1.7s1.5-0.6,2.3-0.6c1.7,0,4.2,1,4.2,5.1v7.1
	h-2.2v-6.9c0-1.9-0.7-3.5-2.8-3.5c-0.8,0-1.6,0.4-2.2,1s-0.9,1.4-0.9,2.2v7.2h-2.2L149.8,11.7L149.8,11.7z"/>
<path class="st0" d="M163.2,11.7c0-1.2,0-2.2-0.1-3.2h1.9l0.1,2h0.1c0.4-0.7,1-1.3,1.7-1.7c0.7-0.4,1.5-0.6,2.3-0.6
	c1.7,0,4.2,1,4.2,5.1v7.1h-2.2v-6.9c0-1.9-0.7-3.5-2.8-3.5c-0.8,0-1.6,0.4-2.2,1s-0.9,1.4-0.9,2.2v7.2h-2.2L163.2,11.7L163.2,11.7z"
	/>
<path class="st0" d="M178.2,14.9c0.1,2.9,1.9,4.2,4.1,4.2c1.1,0,2.3-0.2,3.3-0.6L186,20c-1.3,0.5-2.6,0.8-4,0.7
	c-3.7,0-5.9-2.4-5.9-6s2.1-6.5,5.6-6.5c3.9,0,4.9,3.4,4.9,5.6c0,0.3,0,0.7-0.1,1L178.2,14.9L178.2,14.9z M184.5,13.3
	c0-1.4-0.6-3.5-3-3.5c-2.2,0-3.2,2-3.4,3.5H184.5L184.5,13.3z"/>
<path class="st0" d="M189.6,2.9h2.2v17.6h-2.2V2.9z"/>
<path class="st0" d="M192.9,4.3c0-0.4,0.1-0.7,0.4-1c0.3-0.3,0.6-0.4,1-0.4c0.2,0,0.4,0,0.5,0.1s0.3,0.2,0.5,0.3s0.2,0.3,0.3,0.5
	c0.1,0.2,0.1,0.4,0.1,0.5c0,0.4-0.2,0.7-0.4,0.9c-0.3,0.2-0.6,0.4-1,0.4s-0.7-0.1-1-0.4C193.1,5,192.9,4.7,192.9,4.3L192.9,4.3
	L192.9,4.3z M195.5,4.3c0-0.2,0-0.3-0.1-0.5c-0.1-0.2-0.1-0.3-0.3-0.4c-0.1-0.1-0.3-0.2-0.4-0.3S194.4,3,194.2,3s-0.3,0-0.5,0.1
	c-0.2,0.1-0.3,0.2-0.4,0.3s-0.2,0.3-0.3,0.4C193,4,193,4.1,193,4.3c0,0.2,0,0.3,0.1,0.5c0.1,0.2,0.1,0.3,0.3,0.4
	c0.1,0.1,0.3,0.2,0.4,0.3s0.3,0.1,0.5,0.1s0.3,0,0.5-0.1c0.2-0.1,0.3-0.2,0.4-0.3s0.2-0.3,0.3-0.4C195.5,4.7,195.5,4.5,195.5,4.3z
	 M193.7,3.5h0.7c0.1,0,0.2,0,0.2,0s0.1,0.1,0.2,0.1c0,0,0.1,0.1,0.1,0.1c0,0,0,0.1,0,0.2c0,0.1,0,0.2-0.1,0.3
	c-0.1,0.1-0.2,0.2-0.3,0.2L195,5h-0.3l-0.4-0.6H194V5h-0.3L193.7,3.5L193.7,3.5z M194.3,4.3c0.2,0,0.3-0.1,0.3-0.2s-0.1-0.2-0.3-0.2
	H194v0.5H194.3z"/>
</svg>
